<svg xmlns="http://www.w3.org/2000/svg" xmlns:svg="http://www.w3.org/2000/svg" id="svg2" width="300" height="270" version="1.1" viewBox="0 0 300 270" xml:space="preserve"><metadata id="metadata8"/><defs id="defs6"><clipPath id="clipPath20" clipPathUnits="userSpaceOnUse"><path id="path18" d="M 0,0 H 612 V 792 H 0 Z"/></clipPath></defs><g id="g10" transform="matrix(1.3333333,0,0,-1.3333333,0,270)"><g id="g26" transform="matrix(1.8270933,0,0,1.8270933,16.247497,31.391678)"><g id="g28"><path id="path30" style="fill:none;stroke:#000;stroke-width:.79701;stroke-linecap:butt;stroke-linejoin:miter;stroke-miterlimit:10;stroke-dasharray:none;stroke-opacity:1" d="M 0,0 H 109.8463"/><g id="g32" transform="translate(109.8463)"><g id="g34"><path id="path36" style="fill:none;stroke:#000;stroke-width:.6376;stroke-linecap:round;stroke-linejoin:round;stroke-miterlimit:10;stroke-dasharray:none;stroke-opacity:1" d="M -1.55415,2.0722 C -1.42464,1.29512 0,0.1295 0.38852,0 0,-0.1295 -1.42464,-1.29512 -1.55415,-2.0722"/></g></g><path id="path38" style="fill:none;stroke:#000;stroke-width:.79701;stroke-linecap:butt;stroke-linejoin:miter;stroke-miterlimit:10;stroke-dasharray:none;stroke-opacity:1" d="M 0,0 V 93.5454"/><path id="path40" style="fill:none;stroke:#000;stroke-width:.79701;stroke-linecap:butt;stroke-linejoin:miter;stroke-miterlimit:10;stroke-dasharray:none;stroke-opacity:1" d="M 17.00824,-1.7933 V 1.7933"/><g id="g42"><g id="g44" transform="translate(15.023,-10.405)"><g id="g46"><g id="g48" transform="translate(-176.126,-562.85)"><text id="text52" style="font-variant:normal;font-weight:400;font-size:6.97380018px;font-family:Montserrat;-inkscape-font-specification:LMRoman7-Regular;writing-mode:lr-tb;fill:#000;fill-opacity:1;fill-rule:nonzero;stroke:none" transform="matrix(1,0,0,-1,176.126,562.85)"><tspan id="tspan50" x="0" y="0">1</tspan></text></g></g></g></g><path id="path58" style="fill:none;stroke:#000;stroke-width:.79701;stroke-linecap:butt;stroke-linejoin:miter;stroke-miterlimit:10;stroke-dasharray:none;stroke-opacity:1" d="M 34.0165,-1.7933 V 1.7933"/><g id="g60"><g id="g62" transform="translate(32.031,-10.405)"><g id="g64"><g id="g66" transform="translate(-193.134,-562.85)"><text id="text70" style="font-variant:normal;font-weight:400;font-size:6.97380018px;font-family:Montserrat;-inkscape-font-specification:LMRoman7-Regular;writing-mode:lr-tb;fill:#000;fill-opacity:1;fill-rule:nonzero;stroke:none" transform="matrix(1,0,0,-1,193.134,562.85)"><tspan id="tspan68" x="0" y="0">2</tspan></text></g></g></g></g><path id="path76" style="fill:none;stroke:#000;stroke-width:.79701;stroke-linecap:butt;stroke-linejoin:miter;stroke-miterlimit:10;stroke-dasharray:none;stroke-opacity:1" d="M 51.02477,-1.7933 V 1.7933"/><g id="g78"><g id="g80" transform="translate(49.039,-10.405)"><g id="g82"><g id="g84" transform="translate(-210.142,-562.85)"><text id="text88" style="font-variant:normal;font-weight:400;font-size:6.97380018px;font-family:Montserrat;-inkscape-font-specification:LMRoman7-Regular;writing-mode:lr-tb;fill:#000;fill-opacity:1;fill-rule:nonzero;stroke:none" transform="matrix(1,0,0,-1,210.142,562.85)"><tspan id="tspan86" x="0" y="0">3</tspan></text></g></g></g></g><path id="path94" style="fill:none;stroke:#000;stroke-width:.79701;stroke-linecap:butt;stroke-linejoin:miter;stroke-miterlimit:10;stroke-dasharray:none;stroke-opacity:1" d="M 68.03302,-1.7933 V 1.7933"/><g id="g96"><g id="g98" transform="translate(66.047,-10.405)"><g id="g100"><g id="g102" transform="translate(-227.15,-562.85)"><text id="text106" style="font-variant:normal;font-weight:400;font-size:6.97380018px;font-family:Montserrat;-inkscape-font-specification:LMRoman7-Regular;writing-mode:lr-tb;fill:#000;fill-opacity:1;fill-rule:nonzero;stroke:none" transform="matrix(1,0,0,-1,227.15,562.85)"><tspan id="tspan104" x="0" y="0">4</tspan></text></g></g></g></g><path id="path112" style="fill:none;stroke:#000;stroke-width:.79701;stroke-linecap:butt;stroke-linejoin:miter;stroke-miterlimit:10;stroke-dasharray:none;stroke-opacity:1" d="M 85.04128,-1.7933 V 1.7933"/><g id="g114"><g id="g116" transform="translate(83.055,-10.405)"><g id="g118"><g id="g120" transform="translate(-244.158,-562.85)"><text id="text124" style="font-variant:normal;font-weight:400;font-size:6.97380018px;font-family:Montserrat;-inkscape-font-specification:LMRoman7-Regular;writing-mode:lr-tb;fill:#000;fill-opacity:1;fill-rule:nonzero;stroke:none" transform="matrix(1,0,0,-1,244.158,562.85)"><tspan id="tspan122" x="0" y="0">5</tspan></text></g></g></g></g><path id="path130" style="fill:none;stroke:#000;stroke-width:.79701;stroke-linecap:butt;stroke-linejoin:miter;stroke-miterlimit:10;stroke-dasharray:none;stroke-opacity:1" d="M 102.04953,-1.7933 V 1.7933"/><g id="g132"><g id="g134" transform="translate(100.063,-10.405)"><g id="g136"><g id="g138" transform="translate(-261.166,-562.85)"><text id="text142" style="font-variant:normal;font-weight:400;font-size:6.97380018px;font-family:Montserrat;-inkscape-font-specification:LMRoman7-Regular;writing-mode:lr-tb;fill:#000;fill-opacity:1;fill-rule:nonzero;stroke:none" transform="matrix(1,0,0,-1,261.166,562.85)"><tspan id="tspan140" x="0" y="0">6</tspan></text></g></g></g></g></g><g id="g148"><g id="g150"><g id="g152" transform="translate(8.615,-17.066)"><g id="g154"><g id="g156" transform="translate(-169.718,-556.189)"><text id="text160" style="font-variant:normal;font-weight:400;font-size:6.5px;font-family:Montserrat;-inkscape-font-specification:LMSans8-Regular;writing-mode:lr-tb;fill:#000;fill-opacity:1;fill-rule:nonzero;stroke:none" transform="matrix(1,0,0,-1,169.718,556.189)"><tspan id="tspan158" x="0" y="0">Time since enrollment in months</tspan></text></g></g></g></g><g id="g166"><g id="g170" transform="translate(-8.659,82.619)"><g id="g172"><g id="g174" transform="translate(-152.444,-655.874)"><text id="text178" style="font-variant:normal;font-weight:400;font-size:6.97380018px;font-family:Montserrat;-inkscape-font-specification:LMSans8-Regular;writing-mode:lr-tb;fill:#e41a1c;fill-opacity:1;fill-rule:nonzero;stroke:none" transform="matrix(1,0,0,-1,152.444,655.874)"><tspan id="tspan176" x="0" y="0">A</tspan></text></g></g></g></g><g id="g184"><g id="g188" transform="translate(54.744,82.619)"><g id="g190"><g id="g192" transform="translate(-215.847,-655.874)"><text id="text196" style="font-variant:normal;font-weight:400;font-size:6.97380018px;font-family:Montserrat;-inkscape-font-specification:LMSans8-Regular;writing-mode:lr-tb;fill:#e41a1c;fill-opacity:1;fill-rule:nonzero;stroke:none" transform="matrix(1,0,0,-1,215.847,655.874)"><tspan id="tspan194" x="0" y="0">Lost</tspan></text></g></g></g></g><g id="g202"><g id="g206" transform="translate(-8.659,65.611)"><g id="g208"><g id="g210" transform="translate(-152.444,-638.866)"><text id="text214" style="font-variant:normal;font-weight:400;font-size:6.97380018px;font-family:Montserrat;-inkscape-font-specification:LMSans8-Regular;writing-mode:lr-tb;fill:#377eb8;fill-opacity:1;fill-rule:nonzero;stroke:none" transform="matrix(1,0,0,-1,152.444,638.866)"><tspan id="tspan212" x="0" y="0">B</tspan></text></g></g></g></g><g id="g220"><g id="g224" transform="translate(80.256,66.289)"><g id="g226"><g id="g228" transform="translate(-241.359,-639.544)"><text id="text232" style="font-variant:normal;font-weight:400;font-size:6.97380018px;font-family:Montserrat;-inkscape-font-specification:LMMathSymbols7-Regular;writing-mode:lr-tb;fill:#377eb8;fill-opacity:1;fill-rule:nonzero;stroke:none" transform="matrix(1,0,0,-1,241.359,639.544)"><tspan id="tspan230" x="0" y="0">†</tspan></text></g></g></g></g><g id="g238"><g id="g242" transform="translate(-8.453,48.603)"><g id="g244"><g id="g246" transform="translate(-152.65,-621.858)"><text id="text250" style="font-variant:normal;font-weight:400;font-size:6.97380018px;font-family:Montserrat;-inkscape-font-specification:LMSans8-Regular;writing-mode:lr-tb;fill:#e41a1c;fill-opacity:1;fill-rule:nonzero;stroke:none" transform="matrix(1,0,0,-1,152.65,621.858)"><tspan id="tspan248" x="0" y="0">C</tspan></text></g></g></g></g><g id="g256"><g id="g260" transform="translate(63.248,49.281)"><g id="g262"><g id="g264" transform="translate(-224.351,-622.536)"><text id="text268" style="font-variant:normal;font-weight:400;font-size:6.97380018px;font-family:Montserrat;-inkscape-font-specification:LMSans8-Regular;writing-mode:lr-tb;fill:#e41a1c;fill-opacity:1;fill-rule:nonzero;stroke:none" transform="matrix(1,0,0,-1,224.351,622.536)"><tspan id="tspan266" x="0" y="0">Dropped out</tspan></text></g></g></g></g><g id="g274"><g id="g278" transform="translate(-9.07,31.595)"><g id="g280"><g id="g282" transform="translate(-152.033,-604.85)"><text id="text286" style="font-variant:normal;font-weight:400;font-size:6.97380018px;font-family:Montserrat;-inkscape-font-specification:LMSans8-Regular;writing-mode:lr-tb;fill:#377eb8;fill-opacity:1;fill-rule:nonzero;stroke:none" transform="matrix(1,0,0,-1,152.033,604.85)"><tspan id="tspan284" x="0" y="0">D</tspan></text></g></g></g></g><g id="g292"><g id="g296" transform="translate(37.735,32.273)"><g id="g298"><g id="g300" transform="translate(-198.838,-605.528)"><text id="text304" style="font-variant:normal;font-weight:400;font-size:6.97380018px;font-family:Montserrat;-inkscape-font-specification:LMMathSymbols7-Regular;writing-mode:lr-tb;fill:#377eb8;fill-opacity:1;fill-rule:nonzero;stroke:none" transform="matrix(1,0,0,-1,198.838,605.528)"><tspan id="tspan302" x="0" y="0">†</tspan></text></g></g></g></g><g id="g310"><g id="g314" transform="translate(-8.162,14.587)"><g id="g316"><g id="g318" transform="translate(-152.941,-587.842)"><text id="text322" style="font-variant:normal;font-weight:400;font-size:6.97380018px;font-family:Montserrat;-inkscape-font-specification:LMSans8-Regular;writing-mode:lr-tb;fill:#e41a1c;fill-opacity:1;fill-rule:nonzero;stroke:none" transform="matrix(1,0,0,-1,152.941,587.842)"><tspan id="tspan320" x="0" y="0">E</tspan></text></g></g></g></g></g><g id="g338"><g id="g340"><path id="path342" style="fill:none;stroke:#e41a1c;stroke-width:.3985;stroke-linecap:butt;stroke-linejoin:miter;stroke-miterlimit:10;stroke-dasharray:none;stroke-opacity:1" d="m 0,85.04684 47.44122,6e-5"/><g id="g344" transform="translate(47.44122,85.0469)"><g id="g346"><path id="path348" style="fill:#e41a1c;fill-opacity:1;fill-rule:nonzero;stroke:none" d="M 3.58653,0 C 2.52383,0.19925 0.797,0.797 -0.3985,1.49438 V -1.49438 C 0.797,-0.797 2.52383,-0.19925 3.58653,0"/></g></g></g><g id="g350"><path id="path352" style="fill:none;stroke:#377eb8;stroke-width:.3985;stroke-linecap:butt;stroke-linejoin:miter;stroke-miterlimit:10;stroke-dasharray:none;stroke-opacity:1" d="m 0,68.0373 72.95511,-1.1e-4"/><g id="g354" transform="translate(72.95511,68.03719)"><g id="g356"><path id="path358" style="fill:#377eb8;fill-opacity:1;fill-rule:nonzero;stroke:none" d="M 3.58653,0 C 2.52383,0.19925 0.797,0.797 -0.3985,1.49438 V -1.49438 C 0.797,-0.797 2.52383,-0.19925 3.58653,0"/></g></g></g><g id="g360"><path id="path362" style="fill:none;stroke:#e41a1c;stroke-width:.3985;stroke-linecap:butt;stroke-linejoin:miter;stroke-miterlimit:10;stroke-dasharray:none;stroke-opacity:1" d="m 0,51.02803 55.94585,4.3e-4"/><g id="g364" transform="translate(55.94585,51.02846)"><g id="g366"><path id="path368" style="fill:#e41a1c;fill-opacity:1;fill-rule:nonzero;stroke:none" d="M 3.58653,0 C 2.52383,0.19925 0.797,0.797 -0.3985,1.49438 V -1.49438 C 0.797,-0.797 2.52383,-0.19925 3.58653,0"/></g></g></g><g id="g370"><path id="path372" style="fill:none;stroke:#377eb8;stroke-width:.3985;stroke-linecap:butt;stroke-linejoin:miter;stroke-miterlimit:10;stroke-dasharray:none;stroke-opacity:1" d="m 0,34.01878 30.43195,-1.2e-4"/><g id="g374" transform="translate(30.43195,34.01866)"><g id="g376"><path id="path378" style="fill:#377eb8;fill-opacity:1;fill-rule:nonzero;stroke:none" d="M 3.58653,0 C 2.52383,0.19925 0.797,0.797 -0.3985,1.49438 V -1.49438 C 0.797,-0.797 2.52383,-0.19925 3.58653,0"/></g></g></g><g id="g380"><path id="path382" style="fill:none;stroke:#e41a1c;stroke-width:.3985;stroke-linecap:butt;stroke-linejoin:miter;stroke-miterlimit:10;stroke-dasharray:none;stroke-opacity:1" d="M 0,17.00923 H 98.469"/><g id="g384" transform="translate(98.469,17.00923)"><g id="g386"><path id="path388" style="fill:#e41a1c;fill-opacity:1;fill-rule:nonzero;stroke:none" d="M 3.58653,0 C 2.52383,0.19925 0.797,0.797 -0.3985,1.49438 V -1.49438 C 0.797,-0.797 2.52383,-0.19925 3.58653,0"/></g></g></g></g></g></g></svg>